<?xml version="1.0" standalone="no"?>
<!DOCTYPE svg PUBLIC "-//W3C//DTD SVG 20010904//EN"
 "http://www.w3.org/TR/2001/REC-SVG-20010904/DTD/svg10.dtd">
<svg version="1.0" xmlns="http://www.w3.org/2000/svg"
 width="201.000000pt" height="250.000000pt" viewBox="0 0 201.000000 250.000000"
 preserveAspectRatio="xMidYMid meet">

<g transform="translate(0.000000,250.000000) scale(0.100000,-0.100000)"
fill="#000000" stroke="none">
<path d="M1033 2245 c-58 -39 -100 -86 -109 -122 -4 -15 0 -73 9 -131 9 -57
14 -109 12 -115 -2 -7 -6 -24 -9 -40 -4 -16 -23 -39 -48 -57 -79 -57 -161 -32
-175 53 -4 25 0 44 11 62 20 31 8 32 -51 5 -85 -38 -108 -141 -58 -260 29 -69
31 -88 9 -118 -40 -58 -135 0 -125 76 4 24 -37 -6 -63 -46 -14 -20 -34 -70
-46 -110 -22 -73 -23 -83 -4 -212 5 -31 -1 -44 -50 -110 -113 -152 -119 -190
-40 -228 46 -23 46 -23 40 -64 -5 -29 -2 -47 9 -65 9 -14 14 -31 11 -39 -3 -9
3 -33 14 -54 15 -30 18 -49 13 -85 -6 -46 -6 -47 15 -34 16 10 24 11 33 2 8
-8 6 -11 -7 -10 -24 2 -32 -40 -10 -49 9 -3 16 -10 16 -15 0 -6 -10 -5 -23 2
-20 10 -20 9 4 -16 31 -32 80 -44 172 -45 76 0 130 -18 146 -48 6 -12 11 -45
11 -74 0 -29 3 -63 6 -75 l6 -23 414 0 c228 0 414 2 414 5 0 3 -9 23 -20 45
-48 94 -63 261 -35 392 13 65 57 165 108 245 46 72 97 182 112 240 19 73 19
220 0 303 -23 96 -104 255 -167 324 -49 55 -160 146 -178 146 -4 0 -2 -21 6
-46 18 -61 8 -119 -27 -158 -23 -26 -34 -31 -70 -30 -65 2 -83 30 -75 113 9
84 -9 135 -80 231 -83 111 -100 166 -74 236 6 15 9 28 7 30 -2 2 -26 -12 -54
-31z m59 -293 c64 -68 78 -100 78 -174 1 -85 27 -144 74 -163 48 -20 90 -19
136 5 47 24 65 49 81 113 l12 48 29 -28 c141 -133 217 -375 157 -500 -26 -55
-63 -85 -161 -133 -92 -45 -109 -36 -63 30 16 22 26 42 23 45 -2 3 -15 -13
-29 -34 -26 -42 -39 -37 -39 17 0 22 5 32 15 32 11 0 15 11 15 43 l-1 42 -16
-30 c-15 -26 -18 -27 -21 -10 -7 34 45 245 57 229 3 -5 13 -10 21 -12 9 -1 6
5 -8 16 -13 10 -35 18 -50 19 -15 0 -19 -1 -9 -4 9 -2 17 -7 17 -11 0 -25 -67
-262 -74 -262 -5 0 -6 15 -3 33 6 32 6 32 -7 7 -7 -14 -16 -42 -20 -62 -8 -42
-35 -65 -55 -45 -10 9 -11 8 -5 -6 5 -14 2 -16 -12 -11 -14 4 -16 3 -5 -4 7
-5 22 -7 32 -5 10 3 19 0 19 -6 0 -6 -7 -11 -15 -11 -9 0 -20 -11 -25 -25 -8
-20 -6 -29 10 -45 11 -11 20 -28 20 -37 0 -14 -2 -15 -9 -4 -6 10 -12 4 -21
-23 -10 -31 -16 -36 -43 -36 -42 0 -62 13 -53 36 6 18 5 18 -8 1 -12 -16 -14
-16 -20 -1 -10 26 4 64 24 64 10 0 21 -6 23 -12 4 -9 6 -8 6 2 1 9 -4 21 -10
27 -13 13 -48 -13 -50 -37 -1 -8 -5 -4 -9 10 -5 15 -8 19 -9 8 -1 -9 3 -28 9
-42 5 -14 6 -26 1 -26 -5 0 -11 13 -14 29 -4 17 -14 30 -26 34 -29 7 -26 41 4
57 14 7 25 17 25 22 0 5 -4 7 -10 3 -16 -10 -43 42 -36 70 9 34 64 95 87 95
10 0 19 7 19 15 0 17 -16 20 -25 5 -4 -6 -21 -16 -39 -24 -73 -30 -107 -113
-71 -176 22 -40 -16 -70 -45 -35 -10 12 -9 20 4 40 22 33 20 39 -12 51 -23 9
-33 8 -51 -8 -29 -23 -37 -23 -44 2 -4 16 -2 18 13 10 22 -12 47 8 56 47 8 28
-9 46 -78 83 -34 17 -39 18 -53 4 -21 -21 -29 -62 -16 -78 9 -10 8 -15 -4 -20
-15 -5 -20 12 -16 54 1 9 -12 26 -29 38 -22 17 -30 19 -30 8 0 -24 -89 -109
-107 -102 -12 5 -4 15 33 41 54 38 58 46 69 125 7 48 6 53 -7 42 -16 -12 -48
-7 -48 8 0 5 6 11 13 14 6 3 0 3 -14 0 -41 -8 -42 9 -4 46 44 42 46 82 9 188
-18 52 -24 85 -19 109 5 29 25 48 25 23 0 -21 63 -79 102 -95 62 -24 116 -13
171 35 68 60 80 101 72 240 l-6 115 24 -47 c13 -26 45 -70 69 -96z m-477 -482
c5 -9 1 -11 -20 -10 -3 1 -13 -6 -21 -15 -12 -12 -20 -13 -37 -3 -19 10 -20 9
-9 -4 10 -13 10 -17 -4 -22 -10 -4 -22 -2 -27 3 -16 16 11 41 44 41 15 0 31 5
34 10 3 6 12 10 20 10 8 0 17 -4 20 -10z m-11 -36 c20 -7 21 -20 3 -27 -19 -7
-41 8 -33 22 8 13 9 13 30 5z m-35 -28 c10 -11 8 -16 -9 -21 -28 -9 -52 12
-30 25 20 13 26 12 39 -4z m-69 -30 c0 -12 11 -33 25 -46 l25 -23 0 22 c0 29
24 22 28 -8 3 -16 0 -21 -8 -16 -8 5 -7 0 1 -13 7 -12 10 -24 6 -28 -10 -10
-38 16 -30 29 3 6 1 7 -5 3 -6 -4 -17 2 -24 14 -7 11 -17 20 -22 20 -5 0 2
-13 17 -28 15 -15 27 -35 27 -42 0 -9 -10 -4 -27 14 -21 23 -28 41 -30 83 -1
33 2 51 7 48 6 -4 10 -16 10 -29z m156 23 c9 -16 -18 -30 -33 -17 -7 6 -10 14
-7 19 7 13 31 11 40 -2z m-116 -51 c0 -17 -3 -18 -15 -8 -8 7 -15 21 -15 32 0
17 3 18 15 8 8 -7 15 -21 15 -32z m69 28 c10 -12 8 -17 -7 -25 -15 -8 -23 -7
-33 5 -10 13 -10 17 2 25 19 12 25 11 38 -5z m248 -102 c8 -21 -23 -52 -38
-37 -8 8 -6 11 7 10 11 -1 20 6 22 16 3 16 0 18 -18 12 -15 -5 -20 -4 -16 4
10 16 36 13 43 -5z m-110 -11 c3 -7 -3 -9 -16 -6 -12 3 -21 10 -21 15 0 13 32
6 37 -9z m-167 -34 c0 -5 -9 -9 -20 -9 -19 0 -27 20 -13 33 7 8 33 -11 33 -24z
m335 -4 c0 -26 -40 -33 -49 -8 -6 14 -5 16 5 6 17 -17 39 -16 39 1 0 8 -10 17
-22 19 -20 5 -20 5 2 4 18 -2 25 -8 25 -22z m-176 6 c12 -8 12 -12 2 -25 -7
-8 -10 -20 -7 -25 4 -5 2 -12 -3 -16 -6 -3 -7 -13 -4 -23 6 -14 4 -15 -9 -4
-8 7 -22 10 -30 7 -22 -9 -28 17 -12 46 7 13 13 20 14 16 0 -5 -5 -17 -10 -28
-8 -13 -7 -19 0 -19 13 0 41 61 34 72 -7 11 8 10 25 -1z m-79 -31 c-6 -11 -13
-20 -16 -20 -2 0 0 9 6 20 6 11 13 20 16 20 2 0 0 -9 -6 -20z m698 -38 c2 -7
-6 -12 -17 -12 -21 0 -27 11 -14 24 9 9 26 2 31 -12z m-398 -34 c0 -12 -1 -19
-3 -17 -1 2 -9 12 -16 22 -12 14 -11 17 3 17 10 0 16 -8 16 -22z m-180 -24 c0
-3 -4 -3 -9 1 -5 3 -13 0 -17 -6 -7 -12 12 -29 35 -29 7 0 11 6 8 14 -4 10 -1
13 8 10 12 -5 12 -10 -1 -30 -15 -22 -17 -23 -45 -8 -25 12 -28 18 -19 35 6
10 8 24 4 30 -4 8 0 7 15 0 11 -7 21 -14 21 -17z m146 15 c4 -7 0 -15 -8 -20
-9 -5 -21 -22 -28 -39 -7 -16 -17 -30 -22 -30 -5 0 -6 5 -3 10 3 6 -1 13 -9
16 -12 5 -11 10 9 29 14 12 25 27 25 34 0 14 27 14 36 0z m378 -50 c6 36 10
42 29 39 12 -2 22 -9 22 -16 0 -8 9 -20 19 -28 19 -13 19 -14 0 -35 -21 -25
-103 -79 -118 -79 -5 0 -1 9 9 20 24 26 24 76 0 94 -13 9 -16 19 -11 32 7 16
11 11 25 -25 l18 -44 7 42z m-393 -22 c-10 -9 -11 -8 -5 6 3 10 9 15 12 12 3
-3 0 -11 -7 -18z m-76 4 c3 -5 1 -12 -5 -16 -5 -3 -10 1 -10 9 0 18 6 21 15 7z
m635 -213 c0 -20 16 -25 22 -7 2 7 10 -6 17 -29 15 -44 7 -108 -10 -81 -7 11
-9 10 -9 -6 0 -16 -2 -17 -10 -5 -5 8 -5 19 0 25 5 6 2 18 -6 30 -15 19 -15
19 -9 -7 8 -30 4 -33 -25 -18 -13 7 -21 7 -26 -2 -4 -6 -3 -8 3 -5 5 3 20 -1
32 -10 18 -12 20 -17 10 -24 -24 -14 1 -23 32 -12 28 11 30 10 23 -10 -4 -12
-13 -31 -20 -42 -8 -11 -14 -45 -14 -82 0 -35 -4 -63 -9 -63 -14 0 -21 27 -21
76 0 25 -6 55 -14 67 -8 12 -17 32 -21 44 -5 19 -3 22 12 17 14 -4 13 -1 -5
13 -18 15 -22 27 -20 61 2 23 6 42 11 42 4 0 7 8 7 19 0 10 7 24 15 31 8 7 12
17 9 24 -3 6 2 2 10 -8 9 -11 16 -28 16 -38z m-931 -80 c1 -15 10 -52 22 -83
13 -36 20 -74 18 -109 -1 -30 2 -61 8 -68 21 -27 24 -42 4 -19 l-21 23 -21
-26 c-23 -30 -37 -32 -65 -11 -18 14 -17 14 12 9 21 -4 34 -1 44 11 21 26 0
39 -44 26 -28 -7 -36 -7 -33 2 2 7 16 13 31 15 24 3 27 7 21 32 -3 15 -2 31 4
34 6 4 8 21 6 39 l-5 32 11 -33 c7 -23 7 -38 0 -46 -15 -18 -2 -58 18 -54 23
5 18 99 -9 150 -13 25 -20 57 -19 91 0 38 3 47 9 32 5 -11 9 -32 9 -47z m84
25 c-7 -2 -19 -2 -25 0 -7 3 -2 5 12 5 14 0 19 -2 13 -5z m24 -25 c-3 -7 -5
-2 -5 12 0 14 2 19 5 13 2 -7 2 -19 0 -25z m63 13 c0 -14 -7 -19 -25 -17 -35
2 -35 36 0 36 18 0 25 -5 25 -19z m53 12 c-7 -2 -19 -2 -25 0 -7 3 -2 5 12 5
14 0 19 -2 13 -5z m117 -13 c0 -16 -7 -20 -30 -20 -18 0 -30 5 -30 13 0 20 10
27 37 27 16 0 23 -6 23 -20z m43 13 c-7 -2 -19 -2 -25 0 -7 3 -2 5 12 5 14 0
19 -2 13 -5z m112 -4 c4 -5 11 -7 16 -4 5 4 9 2 9 -3 0 -19 -14 -21 -32 -5
-18 16 -18 16 -12 0 8 -23 -3 -22 -15 1 -7 14 -6 18 10 19 10 1 21 -3 24 -8z
m52 -21 c-3 -7 -5 -2 -5 12 0 14 2 19 5 13 2 -7 2 -19 0 -25z m46 25 c-7 -2
-19 -2 -25 0 -7 3 -2 5 12 5 14 0 19 -2 13 -5z m77 -13 c0 -16 -7 -20 -30 -20
-32 0 -33 1 -24 24 9 24 54 21 54 -4z m70 0 c0 -16 -7 -20 -30 -20 -18 0 -30
5 -30 13 0 20 10 27 37 27 16 0 23 -6 23 -20z m36 9 c4 -8 9 -8 17 0 17 17 27
13 27 -11 0 -17 -3 -19 -9 -9 -6 9 -10 10 -16 2 -5 -9 -10 -9 -20 -1 -10 8
-14 7 -18 -2 -3 -7 -6 -3 -6 10 -1 23 13 30 25 11z m-706 -19 c-19 -13 -30
-13 -30 0 0 6 10 10 23 10 18 0 19 -2 7 -10z m155 0 c3 -5 -3 -10 -14 -10 -12
0 -21 5 -21 10 0 6 6 10 14 10 8 0 18 -4 21 -10z m165 6 c0 -2 -9 -6 -20 -9
-11 -3 -20 -1 -20 4 0 5 9 9 20 9 11 0 20 -2 20 -4z m210 -6 c0 -5 -9 -10 -21
-10 -11 0 -17 5 -14 10 3 6 13 10 21 10 8 0 14 -4 14 -10z m-471 -94 l24 -21
-5 28 c-3 15 -1 27 4 27 13 0 6 -166 -7 -179 -7 -7 -9 6 -7 39 4 45 1 53 -30
82 l-33 33 -3 -82 c-2 -46 -6 -83 -10 -83 -5 0 -8 180 -3 198 2 6 47 -21 70
-42z m280 0 l24 -21 -5 28 c-3 15 -1 27 4 27 13 0 6 -166 -7 -179 -7 -7 -9 6
-7 40 4 45 1 52 -30 80 l-33 32 -3 -82 c-2 -45 -7 -81 -13 -81 -7 0 -7 174 0
198 2 6 47 -21 70 -42z m-107 -61 c-3 -81 -6 -95 -20 -95 -15 0 -17 9 -14 65
4 62 3 65 -20 66 l-23 2 23 4 c14 3 22 12 22 25 0 27 -20 18 -47 -22 -25 -35
-30 -89 -12 -122 6 -11 8 -22 6 -25 -10 -10 -37 57 -37 91 0 20 8 51 17 71 16
32 20 35 62 35 l46 0 -3 -95z m280 0 c-3 -81 -6 -95 -20 -95 -15 0 -17 9 -14
65 4 62 3 65 -20 66 l-23 2 23 4 c14 3 22 12 22 25 0 27 -20 18 -47 -22 -24
-35 -29 -82 -13 -124 13 -35 4 -33 -15 4 -20 39 -19 101 3 139 15 27 22 31 62
31 l45 0 -3 -95z m148 87 c0 -17 -13 -21 -31 -9 -26 16 -51 -1 -62 -40 -7 -23
-4 -42 11 -77 30 -66 44 -60 40 19 -3 59 -1 65 17 65 18 0 20 -7 20 -75 0 -76
0 -76 -25 -70 -67 17 -108 79 -94 144 4 20 7 39 6 44 -1 4 25 7 58 7 33 0 60
-4 60 -8z m91 -19 l32 -27 -5 27 c-3 15 -1 27 4 27 15 0 6 -166 -10 -182 -10
-10 -10 -6 -1 20 9 26 8 38 -8 69 -10 20 -28 43 -40 51 l-23 14 0 -81 c0 -44
-3 -81 -7 -81 -6 0 -9 132 -4 183 2 15 31 6 62 -20z"/>
<path d="M1429 1583 c0 -5 -3 -21 -5 -36 -4 -25 -2 -28 17 -25 18 2 23 10 26
38 1 19 0 29 -3 23 -3 -7 -10 -13 -15 -13 -6 0 -7 5 -4 10 3 6 1 10 -4 10 -6
0 -11 -3 -12 -7z"/>
<path d="M1492 1500 c0 -14 2 -19 5 -12 2 6 2 18 0 25 -3 6 -5 1 -5 -13z"/>
<path d="M1140 1502 c0 -5 7 -9 15 -9 8 0 12 4 9 9 -3 4 -9 8 -15 8 -5 0 -9
-4 -9 -8z"/>
<path d="M1158 1473 c6 -2 12 -19 12 -36 1 -24 3 -28 10 -16 13 22 1 59 -19
58 -10 0 -11 -2 -3 -6z"/>
<path d="M1567 1453 c4 -9 -4 -13 -23 -13 l-29 0 25 -13 c15 -8 28 -9 31 -4 4
5 10 0 14 -12 4 -13 9 -20 12 -18 2 3 0 15 -7 26 -15 28 -4 46 18 29 14 -10
15 -10 5 2 -17 18 -53 21 -46 3z"/>
<path d="M1206 1444 c-3 -9 -2 -23 2 -31 7 -11 9 -6 10 16 1 34 -3 39 -12 15z"/>
<path d="M1494 1442 c-8 -12 -8 -22 -1 -33 6 -9 7 -25 3 -35 -6 -16 -9 -16
-16 -4 -6 9 -10 10 -10 3 0 -6 4 -14 9 -17 15 -10 19 -55 5 -67 -8 -6 -14 -17
-14 -23 1 -14 46 -66 58 -66 6 0 12 -7 16 -15 8 -22 24 -18 28 8 2 15 10 22
24 21 14 0 20 4 17 12 -2 7 -11 10 -19 7 -9 -3 -14 2 -14 17 0 19 -4 21 -31
15 -22 -5 -29 -4 -25 4 4 6 10 9 14 7 4 -2 16 3 27 11 20 15 20 15 -2 9 -16
-5 -25 -1 -33 15 -9 15 -9 23 -1 28 7 5 5 18 -7 43 -10 19 -17 45 -15 57 4 26
1 26 -13 3z"/>
<path d="M1624 1427 c-3 -16 -4 -31 0 -34 3 -4 6 2 6 13 0 16 2 17 10 4 9 -13
10 -13 10 0 0 8 -4 22 -9 29 -8 12 -11 9 -17 -12z"/>
<path d="M1520 1417 c0 -3 12 -12 26 -22 15 -9 23 -12 20 -6 -7 11 -46 35 -46
28z"/>
<path d="M1187 1403 c-4 -3 -7 -92 -7 -197 0 -196 -5 -241 -23 -229 -6 3 -7 1
-3 -6 9 -14 26 -5 26 15 0 8 7 14 15 14 13 0 14 4 5 20 -6 12 -8 30 -4 43 5
12 6 51 4 87 -3 36 -5 109 -5 163 0 53 0 97 -1 97 0 0 -4 -3 -7 -7z"/>
<path d="M1565 1350 c-16 -7 -17 -9 -3 -9 9 -1 20 4 23 9 7 11 7 11 -20 0z"/>
<path d="M896 1341 c-4 -5 3 -15 15 -21 18 -10 20 -9 17 6 -4 20 -23 30 -32
15z"/>
<path d="M1640 1328 c-12 -22 -12 -22 6 -6 10 10 15 20 12 24 -4 3 -12 -5 -18
-18z"/>
<path d="M1135 1160 c3 -5 8 -10 11 -10 2 0 4 5 4 10 0 6 -5 10 -11 10 -5 0
-7 -4 -4 -10z"/>
<path d="M835 770 c3 -5 13 -10 21 -10 8 0 14 5 14 10 0 6 -9 10 -21 10 -11 0
-17 -4 -14 -10z"/>
<path d="M1170 770 c0 -5 7 -10 15 -10 8 0 15 5 15 10 0 6 -7 10 -15 10 -8 0
-15 -4 -15 -10z"/>
<path d="M1235 770 c3 -5 13 -10 21 -10 8 0 14 5 14 10 0 6 -9 10 -21 10 -11
0 -17 -4 -14 -10z"/>
</g>
</svg>
